<svg width="129" height="129" viewBox="0 0 129 129" fill="none" xmlns="http://www.w3.org/2000/svg">
<path d="M111.603 67.2347C113.719 64.438 114.891 61.0114 114.891 57.4463C114.891 51.7899 111.729 46.4359 106.639 43.4503C105.329 42.6818 103.837 42.2773 102.318 42.2787H72.109L72.8648 26.7962C73.0412 23.0547 71.7185 19.5021 69.1485 16.7936C67.8873 15.4587 66.3658 14.3965 64.6778 13.6728C62.9899 12.9491 61.1715 12.5792 59.335 12.586C52.7842 12.586 46.9893 16.9952 45.2508 23.3066L34.4294 62.4853H34.3916V116.403H93.8903C95.0493 116.403 96.1831 116.177 97.2287 115.723C103.225 113.166 107.093 107.308 107.093 100.807C107.093 99.2201 106.866 97.658 106.412 96.1463C108.529 93.3496 109.7 89.923 109.7 86.3579C109.7 84.7706 109.474 83.2085 109.02 81.6968C111.137 78.9001 112.308 75.4735 112.308 71.9084C112.283 70.3211 112.056 68.7464 111.603 67.2347ZM14.1094 66.5166V112.372C14.1094 114.602 15.9108 116.403 18.1406 116.403H26.3291V62.4853H18.1406C15.9108 62.4853 14.1094 64.2868 14.1094 66.5166Z" fill="#32B768"/>
</svg>
