<svg width="37" height="37" viewBox="0 0 37 37" fill="none" xmlns="http://www.w3.org/2000/svg">
<g clip-path="url(#clip0_7_184)">
<path d="M11.7267 2.87465C11.8843 2.61154 12.14 2.42182 12.4375 2.34723C12.735 2.27263 13.05 2.31928 13.3131 2.4769C13.5762 2.63452 13.7659 2.89021 13.8405 3.18771C13.9151 3.48521 13.8684 3.80016 13.7108 4.06327L7.82319 13.8752H29.1768L23.2869 4.06327C23.1293 3.80016 23.0826 3.48521 23.1572 3.18771C23.2318 2.89021 23.4215 2.63452 23.6846 2.4769C23.9477 2.31928 24.2627 2.27263 24.5602 2.34723C24.8577 2.42182 25.1134 2.61154 25.271 2.87465L31.8732 13.8752H35.8438C36.1504 13.8752 36.4445 13.997 36.6613 14.2139C36.8782 14.4307 37 14.7248 37 15.0315V19.6565C37 19.9631 36.8782 20.2572 36.6613 20.4741C36.4445 20.6909 36.1504 20.8127 35.8438 20.8127H34.6875V32.3752C34.6875 33.6018 34.2002 34.7782 33.3329 35.6456C32.4655 36.5129 31.2891 37.0002 30.0625 37.0002H6.9375C5.71087 37.0002 4.53449 36.5129 3.66713 35.6456C2.79978 34.7782 2.3125 33.6018 2.3125 32.3752V20.8127H1.15625C0.849593 20.8127 0.555497 20.6909 0.338658 20.4741C0.121819 20.2572 0 19.9631 0 19.6565V15.0315C0 14.7248 0.121819 14.4307 0.338658 14.2139C0.555497 13.997 0.849593 13.8752 1.15625 13.8752H5.12681L11.7244 2.87465H11.7267ZM8.09375 24.2815C8.09375 23.9748 7.97193 23.6807 7.75509 23.4639C7.53825 23.247 7.24416 23.1252 6.9375 23.1252C6.63084 23.1252 6.33675 23.247 6.11991 23.4639C5.90307 23.6807 5.78125 23.9748 5.78125 24.2815V31.219C5.78125 31.5256 5.90307 31.8197 6.11991 32.0366C6.33675 32.2534 6.63084 32.3752 6.9375 32.3752C7.24416 32.3752 7.53825 32.2534 7.75509 32.0366C7.97193 31.8197 8.09375 31.5256 8.09375 31.219V24.2815ZM13.875 24.2815C13.875 23.9748 13.7532 23.6807 13.5363 23.4639C13.3195 23.247 13.0254 23.1252 12.7188 23.1252C12.4121 23.1252 12.118 23.247 11.9012 23.4639C11.6843 23.6807 11.5625 23.9748 11.5625 24.2815V31.219C11.5625 31.5256 11.6843 31.8197 11.9012 32.0366C12.118 32.2534 12.4121 32.3752 12.7188 32.3752C13.0254 32.3752 13.3195 32.2534 13.5363 32.0366C13.7532 31.8197 13.875 31.5256 13.875 31.219V24.2815ZM19.6562 24.2815C19.6562 23.9748 19.5344 23.6807 19.3176 23.4639C19.1008 23.247 18.8067 23.1252 18.5 23.1252C18.1933 23.1252 17.8992 23.247 17.6824 23.4639C17.4656 23.6807 17.3438 23.9748 17.3438 24.2815V31.219C17.3438 31.5256 17.4656 31.8197 17.6824 32.0366C17.8992 32.2534 18.1933 32.3752 18.5 32.3752C18.8067 32.3752 19.1008 32.2534 19.3176 32.0366C19.5344 31.8197 19.6562 31.5256 19.6562 31.219V24.2815ZM25.4375 24.2815C25.4375 23.9748 25.3157 23.6807 25.0988 23.4639C24.882 23.247 24.5879 23.1252 24.2812 23.1252C23.9746 23.1252 23.6805 23.247 23.4637 23.4639C23.2468 23.6807 23.125 23.9748 23.125 24.2815V31.219C23.125 31.5256 23.2468 31.8197 23.4637 32.0366C23.6805 32.2534 23.9746 32.3752 24.2812 32.3752C24.5879 32.3752 24.882 32.2534 25.0988 32.0366C25.3157 31.8197 25.4375 31.5256 25.4375 31.219V24.2815ZM31.2188 24.2815C31.2188 23.9748 31.0969 23.6807 30.8801 23.4639C30.6633 23.247 30.3692 23.1252 30.0625 23.1252C29.7558 23.1252 29.4617 23.247 29.2449 23.4639C29.0281 23.6807 28.9062 23.9748 28.9062 24.2815V31.219C28.9062 31.5256 29.0281 31.8197 29.2449 32.0366C29.4617 32.2534 29.7558 32.3752 30.0625 32.3752C30.3692 32.3752 30.6633 32.2534 30.8801 32.0366C31.0969 31.8197 31.2188 31.5256 31.2188 31.219V24.2815Z" fill="#32B768"/>
</g>
<defs>
<clipPath id="clip0_7_184">
<rect width="37" height="37" fill="white"/>
</clipPath>
</defs>
</svg>
