<svg width="57" height="56" viewBox="0 0 57 56" fill="none" xmlns="http://www.w3.org/2000/svg">
<path d="M38 16.3333C38 18.8087 36.9991 21.1827 35.2175 22.933C33.4359 24.6833 31.0196 25.6667 28.5 25.6667C25.9804 25.6667 23.5641 24.6833 21.7825 22.933C20.0009 21.1827 19 18.8087 19 16.3333C19 13.858 20.0009 11.484 21.7825 9.73367C23.5641 7.98333 25.9804 7 28.5 7C31.0196 7 33.4359 7.98333 35.2175 9.73367C36.9991 11.484 38 13.858 38 16.3333ZM28.5 32.6667C24.0908 32.6667 19.8621 34.3875 16.7443 37.4506C13.6266 40.5137 11.875 44.6681 11.875 49H45.125C45.125 44.6681 43.3734 40.5137 40.2556 37.4506C37.1379 34.3875 32.9092 32.6667 28.5 32.6667Z" fill="#32B768"/>
</svg>
