<svg width="64" height="64" viewBox="0 0 64 64" fill="none" xmlns="http://www.w3.org/2000/svg">
<path d="M42.6666 18.6667C42.6666 21.4956 41.5428 24.2088 39.5424 26.2091C37.542 28.2095 34.8289 29.3333 31.9999 29.3333C29.1709 29.3333 26.4578 28.2095 24.4574 26.2091C22.4571 24.2088 21.3333 21.4956 21.3333 18.6667C21.3333 15.8377 22.4571 13.1246 24.4574 11.1242C26.4578 9.12381 29.1709 8 31.9999 8C34.8289 8 37.542 9.12381 39.5424 11.1242C41.5428 13.1246 42.6666 15.8377 42.6666 18.6667V18.6667ZM31.9999 37.3333C27.0492 37.3333 22.3013 39.3 18.8006 42.8007C15.2999 46.3014 13.3333 51.0493 13.3333 56H50.6666C50.6666 51.0493 48.6999 46.3014 45.1992 42.8007C41.6986 39.3 36.9506 37.3333 31.9999 37.3333V37.3333Z" stroke="#4B5563" stroke-width="2.5" stroke-linecap="round" stroke-linejoin="round"/>
</svg>
