<svg width="522" height="420" viewBox="0 0 522 420" fill="none" xmlns="http://www.w3.org/2000/svg">
<path d="M42.1841 358.579C42.1841 358.579 -6.11062 326.885 0.648655 256.48C8.13214 178.521 38.8471 170.001 62.0928 158.556C88.4766 145.563 111.055 143.319 141.315 79.106C181.26 -5.66898 253.142 0.082084 280.349 0.082084C372.735 0.082084 371.628 91.6873 416.231 137.284C458.22 180.197 549.982 273.222 446.051 355.626C391.934 398.524 128.72 412.171 42.1841 358.579Z" fill="#B3FFD1"/>
<path d="M428.514 188.661C471.216 188.661 505.834 154.044 505.834 111.341C505.834 68.6388 471.216 34.0215 428.514 34.0215C385.811 34.0215 351.194 68.6388 351.194 111.341C351.194 154.044 385.811 188.661 428.514 188.661Z" fill="#32B768"/>
<path d="M417.338 142.751L388.129 119.363C385.076 116.907 384.11 112.533 386.155 109.196C388.626 105.149 393.979 104.311 397.558 107.179L424.112 128.437L458.292 86.4756C460.975 83.1811 465.832 82.6841 469.126 85.368C472.421 88.0518 472.918 92.9082 470.234 96.2027L433.725 141.004C429.664 145.988 422.351 146.769 417.338 142.751Z" fill="white"/>
<path d="M353.068 398.523H112.574C106.894 398.523 102.308 393.922 102.308 388.256V196.369H363.335V388.256C363.335 393.922 358.748 398.523 353.068 398.523Z" fill="#32B768"/>
<path d="M313.805 143.261H258.524H207.133H151.838L102.308 196.369H207.133H258.524H363.335L313.805 143.261Z" fill="#0E7F3D"/>
<path d="M313.805 143.262H151.838V116.949C151.838 112.675 155.303 109.225 159.563 109.225H306.08C310.354 109.225 313.805 112.689 313.805 116.949V143.262Z" fill="#32B768"/>
<path d="M147.28 296.709C153.867 296.709 159.208 289.347 159.208 280.265C159.208 271.183 153.867 263.821 147.28 263.821C140.692 263.821 135.352 271.183 135.352 280.265C135.352 289.347 140.692 296.709 147.28 296.709Z" fill="#0E7F3D"/>
<path d="M147.279 355.288C145.433 355.288 143.942 353.797 143.942 351.951V288.391H150.602V351.965C150.602 353.797 149.111 355.288 147.279 355.288Z" fill="#0E7F3D"/>
<path d="M184.953 355.288C183.107 355.288 181.616 353.797 181.616 351.951V288.391H188.276V351.965C188.276 353.797 186.785 355.288 184.953 355.288Z" fill="#0E7F3D"/>
<path d="M196.88 266.962V284.4C196.88 290.634 191.811 295.689 185.591 295.689H184.313C178.079 295.689 173.024 290.634 173.024 284.4V266.962C173.024 266.792 173.038 266.635 173.081 266.479C173.308 265.542 174.132 264.832 175.14 264.832C176.148 264.832 176.986 265.542 177.213 266.479C177.256 266.635 177.27 266.792 177.27 266.962V280.168C177.27 281.588 178.434 282.753 179.854 282.753H180.28C181.7 282.753 182.865 281.588 182.865 280.168V266.962C182.865 266.792 182.879 266.635 182.922 266.479C183.149 265.542 183.987 264.832 184.995 264.832C186.003 264.832 186.827 265.542 187.054 266.479C187.097 266.635 187.111 266.792 187.111 266.962V280.253C187.111 281.688 188.275 282.852 189.709 282.852H190.079C191.513 282.852 192.663 281.688 192.663 280.253V266.962C192.663 266.792 192.677 266.635 192.72 266.479C192.947 265.542 193.785 264.832 194.793 264.832C195.801 264.832 196.639 265.542 196.866 266.479C196.866 266.621 196.88 266.792 196.88 266.962Z" fill="#0E7F3D"/>
<path d="M425.262 408.691L396.62 419.412L347.161 415.734L335.545 412.738L332.549 411.971L345.06 405.609L412.51 408.208L425.021 408.677L425.262 408.691Z" fill="#E06738"/>
<path d="M500.154 394.236L458.192 391.822L426.242 398.525L412.496 408.223L412.212 408.436L396.606 419.427L347.502 409.544L335.546 412.767L310.724 419.442L278.504 411.717L222.669 416.005L222.91 388.627L205.33 364.629H232.807C241.129 360.142 253.256 358.906 253.256 358.906L270.069 367.398L423.402 368.236L450.979 359.531L500.154 394.236Z" fill="#FDF0B9"/>
<path d="M428.002 334.067H262.13C260.654 343.127 262.13 368.9 262.13 368.9C262.13 383.385 299.264 395.114 345.073 395.114C390.883 395.114 428.017 383.37 428.017 368.9C429.153 348.367 428.002 334.067 428.002 334.067Z" fill="#EDB82C"/>
<path d="M425.944 329.852C433.811 329.44 440.243 337.733 437.588 342.774C434.932 347.815 425.134 351.606 421.897 352.558C414.541 354.73 419.866 366.062 405.964 362.711C398.779 360.979 396.677 365.835 392.687 369.74C388.711 373.645 378.089 370.919 368.135 366.616C358.181 362.313 349.547 374.426 339.933 373.262C330.32 372.097 321.686 367.397 315.381 369.74C309.076 372.083 305.427 369.74 297.787 362.313C290.148 354.887 282.522 365.054 275.55 362.313C268.578 359.573 271.233 352.941 263.608 349.42C255.968 345.898 248.342 344.606 248.342 340.232C248.342 330.349 263.48 327.878 263.48 327.878L425.944 329.852Z" fill="#E06738"/>
<path d="M428.003 318.562C428.003 348.95 390.869 355.567 345.06 355.567C299.25 355.567 262.116 348.95 262.116 318.562C262.116 288.173 299.25 263.536 345.06 263.536C390.869 263.536 428.003 288.173 428.003 318.562Z" fill="#EDB82C"/>
<path d="M303.78 280.835C305.2 280.835 306.35 280.257 306.35 279.543C306.35 278.83 305.2 278.251 303.78 278.251C302.361 278.251 301.21 278.83 301.21 279.543C301.21 280.257 302.361 280.835 303.78 280.835Z" fill="white"/>
<path d="M320.082 290.789C321.501 290.789 322.652 290.21 322.652 289.496C322.652 288.783 321.501 288.204 320.082 288.204C318.662 288.204 317.512 288.783 317.512 289.496C317.512 290.21 318.662 290.789 320.082 290.789Z" fill="white"/>
<path d="M330.789 280.835C332.208 280.835 333.359 280.257 333.359 279.543C333.359 278.83 332.208 278.251 330.789 278.251C329.369 278.251 328.219 278.83 328.219 279.543C328.219 280.257 329.369 280.835 330.789 280.835Z" fill="white"/>
<path d="M348.823 271.59C350.242 271.59 351.393 271.012 351.393 270.298C351.393 269.584 350.242 269.006 348.823 269.006C347.403 269.006 346.253 269.584 346.253 270.298C346.253 271.012 347.403 271.59 348.823 271.59Z" fill="white"/>
<path d="M362.853 284.655C364.272 284.655 365.423 284.076 365.423 283.363C365.423 282.649 364.272 282.07 362.853 282.07C361.433 282.07 360.282 282.649 360.282 283.363C360.282 284.076 361.433 284.655 362.853 284.655Z" fill="white"/>
<path d="M390.572 284.655C391.991 284.655 393.142 284.076 393.142 283.363C393.142 282.649 391.991 282.07 390.572 282.07C389.152 282.07 388.001 282.649 388.001 283.363C388.001 284.076 389.152 284.655 390.572 284.655Z" fill="white"/>
<path d="M291.823 302.617C293.243 302.617 294.394 302.038 294.394 301.324C294.394 300.611 293.243 300.032 291.823 300.032C290.404 300.032 289.253 300.611 289.253 301.324C289.253 302.038 290.404 302.617 291.823 302.617Z" fill="white"/>
<path d="M322.297 314.731C323.716 314.731 324.867 314.152 324.867 313.439C324.867 312.725 323.716 312.146 322.297 312.146C320.877 312.146 319.727 312.725 319.727 313.439C319.727 314.152 320.877 314.731 322.297 314.731Z" fill="white"/>
<path d="M346.238 297.62C347.658 297.62 348.808 297.041 348.808 296.327C348.808 295.614 347.658 295.035 346.238 295.035C344.819 295.035 343.668 295.614 343.668 296.327C343.668 297.041 344.819 297.62 346.238 297.62Z" fill="white"/>
<path d="M362.853 310.853C364.272 310.853 365.423 310.274 365.423 309.561C365.423 308.847 364.272 308.269 362.853 308.269C361.433 308.269 360.282 308.847 360.282 309.561C360.282 310.274 361.433 310.853 362.853 310.853Z" fill="white"/>
<path d="M388.455 305.656C389.875 305.656 391.026 305.077 391.026 304.364C391.026 303.65 389.875 303.071 388.455 303.071C387.036 303.071 385.885 303.65 385.885 304.364C385.885 305.077 387.036 305.656 388.455 305.656Z" fill="white"/>
<path d="M252.901 390.657L278.489 377.536L309.091 390.941C309.091 390.941 321.26 389.578 326.883 389.052C332.507 388.527 340.459 387.718 343.668 389.45C346.892 391.182 352.231 395.073 356.264 394.875C360.296 394.676 374.979 387.348 380.887 389.45C386.794 391.552 405.794 390.387 412.212 389.45L380.347 400.555H278.603L252.901 390.657Z" fill="#FDF0B9"/>
<path d="M500.154 394.236L461.231 409.445L425.262 408.692L425.021 408.678L412.511 408.209L426.256 398.525L458.207 391.822L500.154 394.236Z" fill="#E06738"/>
<path d="M413.263 383.175C412.965 383.175 412.681 382.99 412.582 382.678C412.468 382.309 412.667 381.911 413.036 381.783C413.207 381.726 429.835 376.387 442.743 376.884C443.14 376.898 443.439 377.225 443.424 377.623C443.41 378.02 443.055 378.29 442.686 378.304C430.019 377.807 413.633 383.075 413.462 383.132C413.405 383.175 413.334 383.175 413.263 383.175Z" fill="black"/>
<path d="M272.142 380.504C272.028 380.504 271.901 380.476 271.787 380.419C259.504 373.489 246.837 373.149 246.71 373.149C246.312 373.134 246 372.822 246.014 372.424C246.028 372.027 246.369 371.771 246.738 371.729C246.866 371.729 259.887 372.084 272.483 379.184C272.824 379.382 272.951 379.808 272.753 380.149C272.625 380.376 272.383 380.504 272.142 380.504Z" fill="black"/>
<path d="M240.05 393.215C239.993 393.215 239.95 393.215 239.893 393.2L222.768 389.295C222.385 389.21 222.143 388.827 222.228 388.443C222.314 388.06 222.697 387.819 223.08 387.904L240.206 391.809C240.589 391.894 240.831 392.277 240.745 392.661C240.66 392.987 240.362 393.215 240.05 393.215Z" fill="black"/>
<path d="M56.654 77.8685C55.9156 74.9575 50.3492 73.6937 42.8799 74.3043C41.4173 74.4179 40.0541 73.6085 39.4718 72.2737C36.4898 65.4008 32.7268 61.0982 29.8157 61.8224C26.9047 62.5608 25.6409 68.1272 26.2515 75.5965C26.3651 77.0591 25.5557 78.4224 24.2209 79.0046C17.348 81.9866 13.0454 85.7496 13.7696 88.6607C14.508 91.5717 20.0744 92.8355 27.5437 92.2249C29.0063 92.1113 30.3695 92.9207 30.9518 94.2555C33.9338 101.128 37.6968 105.431 40.6079 104.707C43.5189 103.968 44.7827 98.402 44.1721 90.9327C44.0585 89.4701 44.8679 88.1069 46.2027 87.5247C53.0756 84.5284 57.3924 80.7796 56.654 77.8685Z" fill="#32B768"/>
<path d="M521.965 262.558C522.448 259.604 517.833 256.21 510.747 253.811C509.37 253.342 508.433 252.05 508.433 250.587C508.418 243.104 506.7 237.651 503.732 237.154C500.779 236.671 497.385 241.286 494.985 248.372C494.516 249.749 493.224 250.686 491.762 250.686C484.278 250.701 478.825 252.419 478.328 255.387C477.845 258.34 482.461 261.734 489.546 264.134C490.924 264.603 491.861 265.895 491.861 267.357C491.875 274.841 493.593 280.294 496.561 280.791C499.515 281.274 502.909 276.659 505.309 269.573C505.777 268.195 507.069 267.258 508.532 267.258C516.03 267.244 521.483 265.526 521.965 262.558Z" fill="#EDB82C"/>
<path d="M24.7747 357.329C34.5052 357.329 42.3934 349.441 42.3934 339.711C42.3934 329.98 34.5052 322.092 24.7747 322.092C15.0441 322.092 7.15594 329.98 7.15594 339.711C7.15594 349.441 15.0441 357.329 24.7747 357.329Z" fill="#32B768"/>
</svg>
