<svg width="644" height="661" viewBox="0 0 644 661" fill="none" xmlns="http://www.w3.org/2000/svg">
<path d="M159.931 88.2826C187.672 14.6009 242.19 1.1551 272.617 1.17442C360.517 1.19374 394.46 29.9207 450.929 94.5418C503.881 155.145 541.669 146.007 572.076 169.267C621.648 207.209 649.815 338.19 553.782 418.285C417.642 531.86 330.187 538.757 212.535 502.09C133.193 477.362 66.6983 409.785 65.0949 334.963C62.0039 190.401 129.929 167.972 159.931 88.2826Z" fill="#B3FFD1"/>
<path d="M582.74 160.206L582.373 160.071C579.089 158.835 577.427 155.184 578.645 151.899L607.236 75.3972C608.473 72.113 612.124 70.4516 615.408 71.6687L615.775 71.8039C619.059 73.0403 620.721 76.6915 619.504 79.9757L590.912 156.478C589.676 159.762 586.024 161.443 582.74 160.206Z" fill="#EDB82C"/>
<path d="M573.177 150.277L572.81 150.161C569.449 149.195 567.497 145.679 568.463 142.298L592.515 58.4744C593.481 55.113 596.997 53.1618 600.378 54.1277L600.745 54.2436C604.106 55.2096 606.058 58.7256 605.092 62.1063L581.021 145.93C580.055 149.311 576.539 151.243 573.177 150.277Z" fill="#EDB82C"/>
<path d="M569.159 173.189L568.792 173.054C565.508 171.817 563.846 168.166 565.063 164.882L595.606 83.2022C596.843 79.918 600.494 78.2566 603.778 79.4736L604.145 79.6089C607.429 80.8453 609.091 84.4965 607.874 87.7807L577.331 169.46C576.114 172.764 572.443 174.425 569.159 173.189Z" fill="#EDB82C"/>
<path d="M562.745 141.487L562.378 141.371C559.017 140.405 557.066 136.889 558.032 133.508L582.083 49.6841C583.049 46.3227 586.565 44.3715 589.946 45.3374L590.313 45.4533C593.675 46.4193 595.626 49.9353 594.66 53.316L570.608 137.14C569.642 140.521 566.126 142.453 562.745 141.487Z" fill="#EDB82C"/>
<path d="M553.588 147.63L553.202 147.572C549.744 146.993 547.406 143.709 547.986 140.251L562.475 54.263C563.054 50.8049 566.339 48.4674 569.797 49.0469L570.183 49.1049C573.641 49.6845 575.979 52.9686 575.399 56.4267L560.91 142.414C560.33 145.872 557.046 148.21 553.588 147.63Z" fill="#EDB82C"/>
<path d="M545.957 154.006L545.571 153.967C542.074 153.639 539.524 150.528 539.853 147.051L548.14 60.2325C548.469 56.7358 551.579 54.1858 555.056 54.5142L555.443 54.5528C558.939 54.8812 561.49 57.9915 561.161 61.4689L552.873 148.287C552.545 151.784 549.435 154.334 545.957 154.006Z" fill="#EDB82C"/>
<path d="M563.325 136.329L562.938 136.271C559.48 135.691 557.143 132.407 557.722 128.949L572.211 42.9612C572.791 39.5032 576.075 37.1656 579.533 37.7452L579.919 37.8031C583.377 38.3827 585.715 41.6669 585.135 45.1249L570.646 131.113C570.047 134.59 566.783 136.928 563.325 136.329Z" fill="#EDB82C"/>
<path d="M533.555 161.076L533.168 161.037C529.672 160.709 527.122 157.599 527.45 154.121L535.738 67.3029C536.066 63.8062 539.176 61.2561 542.654 61.5845L543.04 61.6232C546.537 61.9516 549.087 65.0619 548.759 68.5393L540.471 155.358C540.142 158.854 537.032 161.404 533.555 161.076Z" fill="#EDB82C"/>
<path d="M527.952 149.755L527.566 149.736C524.069 149.601 521.345 146.645 521.48 143.129L524.977 56.0017C525.112 52.505 528.068 49.7811 531.584 49.9163L531.97 49.9356C535.467 50.0709 538.191 53.0266 538.056 56.5426L534.559 143.67C534.404 147.167 531.449 149.91 527.952 149.755Z" fill="#EDB82C"/>
<path d="M610.926 118.478C611.351 115.909 610.173 113.474 607.739 111.176C607.855 112.644 607.777 114.112 607.43 115.542C604.397 128.64 583.127 134.88 559.964 129.49C536.781 124.1 520.476 109.128 523.509 96.0296C523.838 94.6387 524.378 93.325 525.093 92.0886C522.022 93.0932 519.955 94.7353 519.22 97.1694L512.594 179.062C512.555 179.641 512.594 180.201 512.691 180.742C512.691 180.762 512.671 180.781 512.671 180.781C511.647 185.205 525.789 192.256 544.257 196.545C558.148 199.771 570.512 200.505 576.249 198.805C576.327 198.786 576.384 198.767 576.462 198.728C577.969 198.245 578.993 197.588 579.418 196.738C579.9 196.178 580.306 195.56 580.577 194.845L610.926 118.478Z" fill="#E06738"/>
<path d="M100.935 201.456L65.871 208.99L56.5208 210.999L21.4573 218.534L54.6082 324.806C54.6082 324.883 54.5889 324.961 54.6082 325.038C55.4003 328.689 69.4257 328.766 85.9432 325.212C102.461 321.657 115.23 315.823 114.438 312.191C114.419 312.114 114.361 312.056 114.342 311.978L100.935 201.456Z" fill="#E06738"/>
<path d="M101.581 175.645L60.9149 184.377L50.077 186.715L9.41113 195.447L47.8554 318.72C47.8554 318.797 47.8361 318.893 47.8554 318.99C48.7634 323.221 65.0297 323.317 84.1939 319.183C103.358 315.049 118.156 308.307 117.248 304.076C117.229 303.999 117.171 303.921 117.132 303.844L101.581 175.645Z" fill="#FDF0B9"/>
<path d="M86.1647 222.242L85.2567 222.3C83.3635 222.435 81.7021 221.025 81.5669 219.112L79.3066 188.647C79.1713 186.754 80.5816 185.092 82.4942 184.957L83.4021 184.899C85.2954 184.764 86.9568 186.174 87.092 188.087L89.3523 218.552C89.4682 220.445 88.0579 222.107 86.1647 222.242Z" fill="black"/>
<path d="M58.3558 198.92C86.7817 192.815 108.381 181.142 106.6 172.849C104.819 164.556 80.3311 162.783 51.9053 168.888C23.4794 174.994 1.87967 186.666 3.66093 194.959C5.44219 203.253 29.9299 205.026 58.3558 198.92Z" fill="#E06738"/>
<mask id="mask0_1_972" style="mask-type:alpha" maskUnits="userSpaceOnUse" x="20" y="192" width="91" height="124">
<path d="M97.2647 192.097L63.3429 199.433L54.3025 201.397L20.3807 208.732L52.4493 312.292C52.4493 312.357 52.4332 312.438 52.4493 312.519C53.2067 316.073 66.7754 316.154 82.7613 312.681C98.7473 309.208 111.091 303.544 110.334 299.99C110.318 299.925 110.269 299.86 110.237 299.795L97.2647 192.097Z" fill="#A03AB4"/>
</mask>
<g mask="url(#mask0_1_972)">
<path d="M23.1273 228.328C23.1273 228.328 34.2742 212.583 43.9722 213.742C53.6896 214.901 55.5441 218.166 68.6422 214.476C81.7403 210.767 83.1699 203.812 95.3794 205.164C103.938 206.111 113.578 214.457 113.578 214.457L120.706 324.651L45.5564 340.801L23.1273 228.328Z" fill="#EDB82C"/>
</g>
<path d="M81.9339 118.945C81.9725 119.138 81.9918 119.312 82.0111 119.505L84.4646 152.695L86.2419 176.495C83.9044 177.577 81.3543 178.62 78.6497 179.644L76.6598 152.675L74.2643 120.065C74.1098 117.921 75.6939 116.047 77.8576 115.892C79.7895 115.757 81.5282 117.09 81.9339 118.945Z" fill="black"/>
<mask id="mask1_1_972" style="mask-type:alpha" maskUnits="userSpaceOnUse" x="64" y="1" width="554" height="521">
<path d="M159.931 88.2826C187.672 14.6009 242.19 1.1551 272.617 1.17442C360.517 1.19374 394.46 29.9207 450.929 94.5418C503.881 155.145 541.669 146.007 572.076 169.267C621.648 207.209 649.815 338.19 553.782 418.285C417.642 531.86 330.187 538.757 212.535 502.09C133.193 477.362 66.6983 409.785 65.0949 334.963C62.0039 190.401 129.929 167.972 159.931 88.2826Z" fill="#FFF3F3"/>
</mask>
<g mask="url(#mask1_1_972)">
<path d="M236.606 119.019H412.117C431.745 119.019 447.664 134.937 447.664 154.565V522.993C447.664 542.62 431.745 558.539 412.117 558.539H236.606C216.979 558.539 201.06 542.62 201.06 522.993V154.546C201.06 134.918 216.979 119.019 236.606 119.019Z" fill="black"/>
<path d="M240.953 134.976H407.751C420.965 134.976 431.687 145.698 431.687 158.912V518.627C431.687 531.841 420.965 542.563 407.751 542.563H240.953C227.739 542.563 217.017 531.841 217.017 518.627V158.912C217.017 145.679 227.739 134.976 240.953 134.976Z" fill="#32B768"/>
<path d="M245.3 227.397H403.405C409.413 227.397 414.281 232.265 414.281 238.273V331.1C414.281 337.108 409.413 341.976 403.405 341.976H245.3C239.292 341.976 234.424 337.108 234.424 331.1V238.273C234.424 232.265 239.292 227.397 245.3 227.397Z" fill="white"/>
<path d="M245.3 357.933H403.405C409.413 357.933 414.281 362.802 414.281 368.81V405.071C414.281 411.079 409.413 415.948 403.405 415.948H245.3C239.292 415.948 234.424 411.079 234.424 405.071V368.81C234.424 362.802 239.292 357.933 245.3 357.933Z" fill="white"/>
<path d="M245.3 431.905H403.405C409.413 431.905 414.281 436.773 414.281 442.781V479.043C414.281 485.051 409.413 489.919 403.405 489.919H245.3C239.292 489.919 234.424 485.051 234.424 479.043V442.781C234.424 436.773 239.292 431.905 245.3 431.905Z" fill="white"/>
<mask id="mask2_1_972" style="mask-type:alpha" maskUnits="userSpaceOnUse" x="217" y="134" width="215" height="409">
<path d="M240.953 134.976H407.751C420.965 134.976 431.687 145.698 431.687 158.912V518.627C431.687 531.841 420.965 542.563 407.751 542.563H240.953C227.739 542.563 217.017 531.841 217.017 518.627V158.912C217.017 145.679 227.739 134.976 240.953 134.976Z" fill="white"/>
</mask>
<g mask="url(#mask2_1_972)">
<path d="M245.3 505.876H403.405C409.413 505.876 414.281 510.745 414.281 516.753V553.014C414.281 559.022 409.413 563.89 403.405 563.89H245.3C239.292 563.89 234.424 559.022 234.424 553.014V516.753C234.424 510.764 239.292 505.876 245.3 505.876Z" fill="#32B768"/>
</g>
<path d="M384.143 239.123H269.796C268.772 245.363 269.796 263.136 269.796 263.136C269.796 273.124 295.393 281.219 326.979 281.219C358.565 281.219 384.163 273.124 384.163 263.136C384.916 248.976 384.143 239.123 384.143 239.123Z" fill="#EDB82C"/>
<path d="M382.714 236.225C388.143 235.936 392.567 241.654 390.751 245.131C388.915 248.609 382.154 251.217 379.932 251.874C374.851 253.38 378.522 261.185 368.959 258.867C364.014 257.669 362.545 261.031 359.802 263.716C357.059 266.401 349.737 264.527 342.879 261.552C336.021 258.596 330.071 266.942 323.425 266.131C316.799 265.319 310.848 262.093 306.502 263.716C302.155 265.339 299.644 263.716 294.37 258.596C289.115 253.477 283.841 260.49 279.05 258.596C274.239 256.703 276.075 252.125 270.82 249.71C265.565 247.295 260.291 246.387 260.291 243.373C260.291 236.554 270.723 234.854 270.723 234.854L382.714 236.225Z" fill="#E06738"/>
<path d="M384.143 228.44C384.143 249.382 358.546 253.96 326.96 253.96C295.374 253.96 269.776 249.401 269.776 228.44C269.776 207.479 295.374 190.498 326.96 190.498C358.546 190.498 384.143 207.479 384.143 228.44Z" fill="#EDB82C"/>
<path d="M365.713 162.386H285.753C283.551 162.386 281.754 160.59 281.754 158.387C281.754 156.185 283.551 154.388 285.753 154.388H365.713C367.916 154.388 369.712 156.185 369.712 158.387C369.712 160.59 367.916 162.386 365.713 162.386Z" fill="#0E7F3D"/>
<path d="M377.653 311.491H273.795C271.593 311.491 269.796 309.695 269.796 307.492C269.796 305.29 271.593 303.493 273.795 303.493H377.672C379.874 303.493 381.671 305.29 381.671 307.492C381.671 309.695 379.874 311.491 377.653 311.491Z" fill="#0E7F3D"/>
<path d="M358.411 325.884H293.036C290.834 325.884 289.037 324.087 289.037 321.885C289.037 319.682 290.834 317.886 293.036 317.886H358.411C360.613 317.886 362.41 319.682 362.41 321.885C362.41 324.087 360.633 325.884 358.411 325.884Z" fill="#0E7F3D"/>
<path d="M277.871 403.738H254.109C251.405 403.738 249.202 401.536 249.202 398.831V375.069C249.202 372.365 251.405 370.162 254.109 370.162H277.871C280.576 370.162 282.778 372.365 282.778 375.069V398.831C282.778 401.536 280.576 403.738 277.871 403.738Z" fill="#0E7F3D"/>
<path d="M366.004 379.242H295.278C293.81 379.242 292.631 378.064 292.631 376.596C292.631 375.127 293.81 373.949 295.278 373.949H366.004C367.472 373.949 368.65 375.127 368.65 376.596C368.65 378.064 367.472 379.242 366.004 379.242Z" fill="#32B768"/>
<path d="M366.004 389.771H295.278C293.81 389.771 292.631 388.592 292.631 387.124C292.631 385.656 293.81 384.477 295.278 384.477H366.004C367.472 384.477 368.65 385.656 368.65 387.124C368.65 388.573 367.472 389.771 366.004 389.771Z" fill="#32B768"/>
<path d="M355.688 399.952H295.278C293.81 399.952 292.631 398.773 292.631 397.305C292.631 395.837 293.81 394.658 295.278 394.658H355.688C357.156 394.658 358.334 395.837 358.334 397.305C358.354 398.754 357.156 399.952 355.688 399.952Z" fill="#32B768"/>
<path d="M277.871 477.71H254.109C251.405 477.71 249.202 475.507 249.202 472.803V449.041C249.202 446.336 251.405 444.134 254.109 444.134H277.871C280.576 444.134 282.778 446.336 282.778 449.041V472.803C282.778 475.507 280.576 477.71 277.871 477.71Z" fill="#0E7F3D"/>
<path d="M366.004 453.252H295.278C293.81 453.252 292.631 452.074 292.631 450.605C292.631 449.137 293.81 447.959 295.278 447.959H366.004C367.472 447.959 368.65 449.137 368.65 450.605C368.65 452.074 367.472 453.252 366.004 453.252Z" fill="#32B768"/>
<path d="M366.004 463.781H295.278C293.81 463.781 292.631 462.602 292.631 461.134C292.631 459.666 293.81 458.488 295.278 458.488H366.004C367.472 458.488 368.65 459.666 368.65 461.134C368.65 462.602 367.472 463.781 366.004 463.781Z" fill="#32B768"/>
<path d="M355.688 473.884H295.278C293.81 473.884 292.631 472.706 292.631 471.238C292.631 469.769 293.81 468.591 295.278 468.591H355.688C357.156 468.591 358.334 469.769 358.334 471.238C358.354 472.687 357.156 473.884 355.688 473.884Z" fill="#32B768"/>
</g>
<path d="M589.116 500.834C576.346 477.652 572.714 412.876 564.04 376.885C550.015 318.639 522.717 322.445 508.112 328.453C507.61 328.666 501.988 319.335 488.504 319.335C472.604 319.335 472.74 326.792 468.026 327.623C464.491 328.241 457.188 325.073 447.065 327.391C436.884 329.728 432.75 337.553 429.35 340.103L416.793 293.255C412.967 278.997 398.305 270.536 384.047 274.361C369.79 278.186 361.328 292.849 365.154 307.106L398.961 433.161L372.224 415.021C360.015 406.733 343.381 409.901 335.094 422.13C326.806 434.339 329.974 450.973 342.203 459.261L416.329 509.586C433.078 521.467 454.812 538.178 462.81 550.039C476.526 570.382 496.927 655.23 496.927 655.23C600.069 679.842 626.517 611.067 626.517 611.067L589.116 500.834Z" fill="#F0C7A9"/>
<path d="M615.119 560.664L601.77 519.071C599.722 512.696 593.694 508.562 587.184 509.083L507.359 515.439C506.374 515.517 505.446 515.729 504.558 516L503.495 513.024L497.931 520.288C497.564 520.733 497.197 521.177 496.888 521.66L496.695 521.93L496.714 521.969C496.173 522.819 495.69 523.727 495.323 524.674C494.203 527.649 494.029 531.068 495.111 534.41L508.46 576.004C510.508 582.379 516.535 586.513 523.046 585.991L602.871 579.636C611.97 578.901 617.997 569.59 615.119 560.664Z" fill="#0E7F3D"/>
<path d="M608.879 563.968L621.262 595.651C621.262 595.651 634.071 538.177 601.789 519.071L608.879 563.968Z" fill="black"/>
<path d="M602.214 572.758L527.45 578.728C521.345 579.211 515.685 575.057 513.734 568.682L501.022 527.031C498.298 518.086 503.881 508.813 512.44 508.137L587.203 502.168C593.308 501.685 598.968 505.838 600.919 512.213L613.631 553.865C616.355 562.809 610.753 572.082 602.214 572.758Z" fill="#32B768"/>
<path d="M508.421 576.004C508.421 576.004 479.366 588.483 487.286 618.466C487.286 618.466 465.07 628.415 460.337 604.982C455.584 581.567 454.541 540.438 494.492 531.783L508.421 576.004Z" fill="black"/>
<path d="M425.602 325.073L442.815 383.492" stroke="black" stroke-width="1.75615" stroke-miterlimit="10" stroke-linecap="round"/>
<path d="M469.571 328.666C469.571 328.666 484.968 351.829 487.364 379.899" stroke="black" stroke-width="1.75615" stroke-miterlimit="10" stroke-linecap="round"/>
<path d="M508.422 329.555C508.422 329.555 523.819 352.718 526.214 380.788" stroke="black" stroke-width="1.75615" stroke-miterlimit="10" stroke-linecap="round"/>
<path d="M102.093 479.046C117.404 479.046 129.816 466.634 129.816 451.323C129.816 436.013 117.404 423.601 102.093 423.601C86.7827 423.601 74.371 436.013 74.371 451.323C74.371 466.634 86.7827 479.046 102.093 479.046Z" fill="#0E7F3D"/>
<path d="M643.478 294.974C644.483 291.458 639.383 286.725 631.153 282.803C629.549 282.031 628.603 280.35 628.815 278.573C629.878 269.512 628.564 262.673 625.048 261.669C621.532 260.664 616.799 265.764 612.877 273.994C612.105 275.598 610.424 276.544 608.647 276.332C599.586 275.269 592.747 276.583 591.743 280.099C590.738 283.615 595.838 288.348 604.068 292.27C605.671 293.042 606.618 294.723 606.406 296.5C605.343 305.561 606.657 312.4 610.173 313.404C613.689 314.409 618.422 309.309 622.343 301.079C623.116 299.476 624.797 298.529 626.574 298.741C635.615 299.804 642.454 298.49 643.478 294.974Z" fill="#32B768"/>
<path d="M232.472 20.6479C231.7 17.0739 224.957 15.3159 215.839 15.7796C214.062 15.8762 212.439 14.833 211.782 13.1715C208.401 4.69062 203.997 -0.699302 200.442 0.0734477C196.868 0.846197 195.11 7.58843 195.574 16.7069C195.67 18.4842 194.627 20.107 192.965 20.7638C184.485 24.1446 179.095 28.5493 179.867 32.1039C180.64 35.6779 187.382 37.4359 196.501 36.9722C198.278 36.8756 199.901 37.9188 200.558 39.5803C203.939 48.0612 208.343 53.4511 211.898 52.6784C215.472 51.9056 217.23 45.1634 216.766 36.0449C216.67 34.2676 217.713 32.6448 219.374 31.988C227.855 28.6265 233.245 24.2219 232.472 20.6479Z" fill="#E06738"/>
</svg>
