<svg width="464" height="452" viewBox="0 0 464 452" fill="none" xmlns="http://www.w3.org/2000/svg">
<path d="M15.9376 258.422C15.9376 258.422 13.8041 142.811 157.462 162.161C279.103 178.533 235.973 184.83 311.817 180.43C329.538 179.407 398.833 155.361 426.776 175.94C461.891 201.795 496.501 291.655 408.463 384.582C304.765 494.03 78.8325 385.575 78.8325 385.575C78.8325 385.575 12.4262 344.134 15.9376 258.422Z" fill="#B3FFD1"/>
<path d="M235.781 451.611C332.386 451.611 410.701 431.492 410.701 406.674C410.701 381.856 332.386 361.736 235.781 361.736C139.175 361.736 60.8606 381.856 60.8606 406.674C60.8606 431.492 139.175 451.611 235.781 451.611Z" fill="#0E7F3D"/>
<path d="M235.78 438.306C341.518 438.306 427.235 418.187 427.235 393.368C427.235 368.55 341.518 348.431 235.78 348.431C130.042 348.431 44.3251 368.55 44.3251 393.368C44.3251 418.187 130.042 438.306 235.78 438.306Z" fill="#32B768"/>
<path d="M336.693 348.09C336.693 391.383 275.384 387.205 199.747 387.205C124.11 387.205 62.8009 391.368 62.8009 348.09C62.8009 304.812 124.11 269.712 199.747 269.712C275.369 269.727 336.693 304.812 336.693 348.09Z" fill="#F0C7A9"/>
<mask id="mask0_8_154" style="mask-type:alpha" maskUnits="userSpaceOnUse" x="62" y="269" width="275" height="119">
<path d="M336.693 348.09C336.693 391.383 275.384 387.205 199.747 387.205C124.11 387.205 62.8009 391.368 62.8009 348.09C62.8009 304.812 124.11 269.712 199.747 269.712C275.369 269.727 336.693 304.812 336.693 348.09Z" fill="#FFC5BB"/>
</mask>
<g mask="url(#mask0_8_154)">
<path d="M115.176 328.519H113.473C110.317 328.519 107.754 325.956 107.754 322.8V257.371C107.754 254.216 110.317 251.652 113.473 251.652H115.176C118.332 251.652 120.895 254.216 120.895 257.371V322.8C120.895 325.97 118.332 328.519 115.176 328.519Z" fill="#E06738"/>
<path d="M152.928 318.592H151.224C148.068 318.592 145.505 316.029 145.505 312.873V247.445C145.505 244.289 148.068 241.726 151.224 241.726H152.928C156.084 241.726 158.647 244.289 158.647 247.445V312.873C158.647 316.029 156.084 318.592 152.928 318.592Z" fill="#E06738"/>
<path d="M189.317 308.146H187.613C184.457 308.146 181.894 305.583 181.894 302.427V236.998C181.894 233.843 184.457 231.279 187.613 231.279H189.317C192.473 231.279 195.036 233.843 195.036 236.998V302.427C195.036 305.597 192.473 308.146 189.317 308.146Z" fill="#E06738"/>
<path d="M226.165 308.146H224.461C221.305 308.146 218.742 305.583 218.742 302.427V236.998C218.742 233.843 221.305 231.279 224.461 231.279H226.165C229.321 231.279 231.884 233.843 231.884 236.998V302.427C231.884 305.597 229.336 308.146 226.165 308.146Z" fill="#E06738"/>
</g>
<path d="M314.32 240.215C271.338 240.215 236.49 252.527 236.49 267.714V386.303H294.259L294.57 412.913C300.881 413.49 307.49 413.802 314.32 413.802C357.302 413.802 392.149 401.489 392.149 386.303V267.714C392.149 252.527 357.302 240.215 314.32 240.215Z" fill="#FDF0B9"/>
<path d="M295.02 294.294V331.423C295.02 331.423 299.198 337.735 305.51 323.852C311.822 309.984 315.6 310.295 316.548 311.88C317.496 313.451 317.644 319.496 321.141 321.733C324.638 323.971 327.675 315.999 329.897 315.362C332.135 314.725 333.557 315.525 335.157 318.237C338.654 324.163 333.424 346.787 343.306 343.661C346.477 342.654 351.351 332.312 349.025 316.177C348.447 312.221 349.988 304.383 351.099 304.383C352.211 304.383 353.011 310.443 356.196 309.643C359.382 308.843 360.982 301.998 364.167 302.635C367.353 303.272 373.339 307.347 375.798 297.701C376.776 293.894 382.332 295.464 383.606 297.227C384.88 298.976 391.503 298.827 392.214 292.768C392.926 286.708 392.214 267.758 392.214 267.758L295.02 294.294Z" fill="#EDB82C"/>
<path d="M314.32 295.213C357.304 295.213 392.149 282.901 392.149 267.714C392.149 252.527 357.304 240.215 314.32 240.215C271.336 240.215 236.49 252.527 236.49 267.714C236.49 282.901 271.336 295.213 314.32 295.213Z" fill="#EDB82C"/>
<path d="M314.343 295.117C350.909 295.117 381.585 286.207 389.931 274.197" stroke="white" stroke-width="2.2294" stroke-linecap="round"/>
<mask id="mask1_8_154" style="mask-type:alpha" maskUnits="userSpaceOnUse" x="236" y="267" width="157" height="147">
<path d="M236.513 386.174V267.585H392.172V386.174C392.172 401.361 357.325 413.673 314.343 413.673C307.512 413.673 300.904 413.362 294.593 412.784L294.281 386.174H236.513Z" fill="#C4C4C4"/>
</mask>
<g mask="url(#mask1_8_154)">
<path d="M395.986 359.174C395.986 375.101 359.419 388.021 314.333 388.021C269.233 388.021 232.666 375.101 232.666 359.174C232.666 357.262 233.185 355.395 234.192 353.588C241.571 366.834 274.656 376.835 314.333 376.835C353.996 376.835 387.081 366.834 394.459 353.588C395.452 355.395 395.986 357.262 395.986 359.174Z" fill="#EDB82C"/>
<path d="M395.986 325.941C395.986 329.852 393.793 333.571 389.792 336.979C387.466 338.964 384.518 340.831 381.066 342.579C366.264 349.973 341.906 354.803 314.333 354.803C286.76 354.803 262.373 349.973 247.586 342.579C244.134 340.831 241.186 338.964 238.86 336.979C234.859 333.571 232.666 329.852 232.666 325.941C232.666 324.266 233.081 322.607 233.852 321.007C235.807 325.037 240.134 328.771 246.282 332.06H246.297C250.179 334.134 254.831 336.001 260.047 337.645C274.478 342.194 293.487 344.95 314.333 344.95C335.15 344.95 354.159 342.194 368.59 337.645C373.821 336.001 378.458 334.134 382.34 332.06H382.355C388.503 328.771 392.83 325.037 394.785 321.007C395.571 322.607 395.986 324.266 395.986 325.941Z" fill="#EDB82C"/>
</g>
<mask id="mask2_8_154" style="mask-type:alpha" maskUnits="userSpaceOnUse" x="236" y="267" width="79" height="146">
<path d="M236.513 267.966H314.827L294.641 294.546V412.925L236.513 412.289V267.966Z" fill="#FC9AEA"/>
</mask>
<g mask="url(#mask2_8_154)">
<path d="M236.514 267.712H314.827L294.641 294.292V413.326H236.514V267.712Z" fill="#EDB82C"/>
<path d="M305.912 279.447C305.912 279.447 301.067 277.491 299.322 278.069C297.593 278.647 295.73 279.55 294.626 279.447C293.538 279.358 288.916 277.417 287.172 277.95C285.443 278.484 278.943 279.98 277.78 279.447C276.617 278.913 271.131 277.224 269.55 277.861C267.955 278.498 264.198 280.35 262.767 279.565C261.336 278.78 255.253 276.691 254.672 278.735C254.09 280.78 254.672 286.677 254.672 287.966C254.672 289.255 253.002 288.707 252.525 293.685C252.048 298.663 254.433 299.374 253.718 302.219C253.002 305.064 251.914 314.072 252.465 317.154C253.002 320.236 252.108 324.029 252.316 329.007C252.525 333.985 250.855 335.6 252.287 340.356C253.718 345.127 251.824 349.157 251.705 353.187C251.586 357.217 252.778 358.165 253.256 363.618C253.733 369.07 251.347 372.152 251.705 374.048C252.063 375.945 251.273 381.871 251.675 384.953C252.078 388.035 252.003 390.168 251.556 393.961C251.109 397.754 251.556 402.51 251.556 402.51L251.705 412.798H301.536L305.912 279.447Z" fill="#FDF0B9"/>
<path d="M305.301 298.529C305.301 298.529 294.716 298.262 289.915 300.87C285.115 303.478 282.357 296.351 276.527 299.24C270.683 302.115 267.94 305.537 269.834 312.871C271.727 320.205 273.441 320.383 271.727 326.013C270.012 331.643 265.376 333.006 267.612 339.496C269.848 345.985 265.376 351.616 267.791 358.09C270.191 364.58 268.641 363.469 268.984 367.558C269.327 371.647 273.233 371.099 271.861 381.841C270.504 392.553 266.375 386.745 267.761 394.079C269.133 401.413 271.056 401.931 270.713 404.998C270.37 408.065 269.342 413.014 269.342 413.014H308.059L305.301 298.529Z" fill="#F0C7A9"/>
</g>
<path d="M241.599 267.077H316.622L307.848 277.25" stroke="white" stroke-width="2.2294" stroke-linecap="round" stroke-linejoin="round"/>
<path d="M283.459 379.623H148.794C147.594 386.987 148.794 407.892 148.794 407.892C148.794 419.642 178.945 429.168 216.119 429.168C253.308 429.168 283.444 419.642 283.444 407.892C284.392 391.224 283.459 379.623 283.459 379.623Z" fill="#EDB82C"/>
<path d="M281.799 376.185C288.185 375.844 293.415 382.571 291.252 386.675C289.089 390.779 281.133 393.846 278.51 394.616C272.539 396.379 276.865 405.58 265.575 402.869C259.738 401.461 258.034 405.403 254.804 408.573C251.574 411.744 242.951 409.521 234.861 406.04C226.772 402.558 219.779 412.381 211.956 411.433C204.133 410.484 197.139 406.677 192.013 408.573C186.887 410.47 183.938 408.573 177.73 402.543C171.522 396.513 165.344 404.765 159.684 402.543C154.024 400.321 156.187 394.927 149.979 392.083C143.771 389.238 137.593 388.171 137.593 384.63C137.593 376.6 149.876 374.6 149.876 374.6L281.799 376.185Z" fill="#E06738"/>
<path d="M283.459 367.028C283.459 391.697 253.308 397.076 216.134 397.076C178.96 397.076 148.809 391.697 148.809 367.028C148.809 342.359 178.96 322.357 216.134 322.357C253.308 322.357 283.459 342.359 283.459 367.028Z" fill="#EDB82C"/>
<path d="M182.62 336.39C183.774 336.39 184.71 335.919 184.71 335.338C184.71 334.757 183.774 334.286 182.62 334.286C181.467 334.286 180.531 334.757 180.531 335.338C180.531 335.919 181.467 336.39 182.62 336.39Z" fill="white"/>
<path d="M195.851 344.478C197.005 344.478 197.94 344.007 197.94 343.426C197.94 342.845 197.005 342.374 195.851 342.374C194.697 342.374 193.762 342.845 193.762 343.426C193.762 344.007 194.697 344.478 195.851 344.478Z" fill="white"/>
<path d="M204.548 336.39C205.702 336.39 206.638 335.919 206.638 335.338C206.638 334.757 205.702 334.286 204.548 334.286C203.395 334.286 202.459 334.757 202.459 335.338C202.459 335.919 203.395 336.39 204.548 336.39Z" fill="white"/>
<path d="M219.187 328.892C220.34 328.892 221.276 328.421 221.276 327.84C221.276 327.259 220.34 326.788 219.187 326.788C218.033 326.788 217.098 327.259 217.098 327.84C217.098 328.421 218.033 328.892 219.187 328.892Z" fill="white"/>
<path d="M230.566 339.5C231.719 339.5 232.655 339.029 232.655 338.448C232.655 337.867 231.719 337.396 230.566 337.396C229.412 337.396 228.477 337.867 228.477 338.448C228.477 339.029 229.412 339.5 230.566 339.5Z" fill="white"/>
<path d="M253.071 339.5C254.225 339.5 255.16 339.029 255.16 338.448C255.16 337.867 254.225 337.396 253.071 337.396C251.917 337.396 250.982 337.867 250.982 338.448C250.982 339.029 251.917 339.5 253.071 339.5Z" fill="white"/>
<path d="M172.915 354.079C174.069 354.079 175.004 353.609 175.004 353.028C175.004 352.447 174.069 351.976 172.915 351.976C171.762 351.976 170.826 352.447 170.826 353.028C170.826 353.609 171.762 354.079 172.915 354.079Z" fill="white"/>
<path d="M197.644 363.917C198.798 363.917 199.733 363.446 199.733 362.865C199.733 362.284 198.798 361.813 197.644 361.813C196.49 361.813 195.555 362.284 195.555 362.865C195.555 363.446 196.49 363.917 197.644 363.917Z" fill="white"/>
<path d="M217.098 350.02C218.252 350.02 219.187 349.549 219.187 348.968C219.187 348.387 218.252 347.916 217.098 347.916C215.944 347.916 215.009 348.387 215.009 348.968C215.009 349.549 215.944 350.02 217.098 350.02Z" fill="white"/>
<path d="M230.566 360.761C231.719 360.761 232.655 360.29 232.655 359.709C232.655 359.128 231.719 358.657 230.566 358.657C229.412 358.657 228.477 359.128 228.477 359.709C228.477 360.29 229.412 360.761 230.566 360.761Z" fill="white"/>
<path d="M251.353 356.539C252.507 356.539 253.442 356.068 253.442 355.488C253.442 354.907 252.507 354.436 251.353 354.436C250.199 354.436 249.264 354.907 249.264 355.488C249.264 356.068 250.199 356.539 251.353 356.539Z" fill="white"/>
<path d="M235.277 325.68C245.829 327.106 252.388 331.098 252.388 331.098" stroke="white" stroke-width="2" stroke-linecap="round"/>
<path d="M168.744 44.2715C187.115 35.863 199.031 22.5442 195.36 14.5232C191.688 6.50225 173.82 6.81649 155.449 15.2251C137.078 23.6337 125.162 36.9525 128.833 44.9734C132.504 52.9944 150.373 52.6801 168.744 44.2715Z" fill="#0E7F3D"/>
<path d="M166.835 40.0828C176.649 35.5908 183.015 28.4749 181.053 24.1891C179.091 19.9033 169.545 20.0706 159.731 24.5627C149.917 29.0547 143.551 36.1706 145.513 40.4564C147.475 44.7422 157.021 44.5749 166.835 40.0828Z" fill="black"/>
<path d="M181.055 24.1856L145.501 40.459L153.912 58.8353L189.466 42.5619L181.055 24.1856Z" fill="black"/>
<path d="M374.356 109.177L72.9942 240.508C70.1643 228.315 68.6679 215.617 68.6679 202.579C68.6679 110.289 143.505 35.4668 235.78 35.4668C293.489 35.4668 344.353 64.714 374.356 109.177Z" fill="#32B768"/>
<path d="M41.7029 267.829C40.1175 265.029 33.9836 265.296 26.4422 268.051C24.9754 268.585 23.3307 268.125 22.3381 266.911C17.3005 260.643 12.189 257.25 9.3887 258.821C6.58844 260.406 6.85517 266.54 9.61098 274.082C10.1444 275.548 9.68503 277.193 8.47011 278.186C2.21767 283.223 -1.1901 288.335 0.380423 291.135C1.96576 293.935 8.09965 293.669 15.6411 290.913C17.1079 290.379 18.7525 290.839 19.7452 292.054C24.7827 298.306 29.8943 301.714 32.6946 300.143C35.4948 298.558 35.2282 292.424 32.4724 284.883C31.939 283.416 32.3982 281.771 33.6132 280.779C39.8804 275.741 43.2882 270.644 41.7029 267.829Z" fill="#EDB82C"/>
<path d="M456.735 143.906C457.535 140.795 452.927 136.735 445.578 133.476C444.141 132.839 443.281 131.372 443.415 129.816C444.126 121.815 442.792 115.815 439.681 115.015C436.57 114.215 432.51 118.822 429.251 126.171C428.613 127.608 427.147 128.468 425.591 128.334C417.59 127.623 411.59 128.957 410.789 132.068C409.989 135.18 414.597 139.239 421.946 142.499C423.383 143.136 424.243 144.603 424.109 146.158C423.398 154.159 424.732 160.16 427.843 160.96C430.954 161.76 435.014 157.152 438.274 149.803C438.911 148.366 440.377 147.507 441.933 147.64C449.934 148.351 455.934 147.018 456.735 143.906Z" fill="#E06738"/>
<path d="M444.082 352.712C453.385 352.712 460.928 345.169 460.928 335.866C460.928 326.562 453.385 319.02 444.082 319.02C434.778 319.02 427.236 326.562 427.236 335.866C427.236 345.169 434.778 352.712 444.082 352.712Z" fill="#32B768"/>
</svg>
